<svg width="223" height="33" viewBox="0 0 223 33" fill="#FF176B" xmlns="http://www.w3.org/2000/svg">
<path d="M114.033 8.90025V30.7075H108.85V9.84758C108.85 8.69836 107.905 7.76656 106.739 7.76656H85.5771V2.65719H107.698C111.197 2.65719 114.033 5.45259 114.033 8.90181V8.90025ZM121.79 19.237H150.246V14.1277H121.79V19.237ZM121.79 30.7091H150.246V25.5997H121.79V30.7091ZM121.79 7.76656H150.246V2.65719H121.79V7.76656ZM84.739 20.3148L76.4636 5.54732C75.1718 3.34206 72.8576 2.02512 70.274 2.02512C67.6905 2.02512 65.3762 3.34206 64.0845 5.54732L49.985 30.7106H55.8296L68.5238 8.05231C69.0531 7.164 69.9227 7.06771 70.2725 7.06771C70.6222 7.06771 71.4902 7.164 72.0211 8.05231L80.1768 22.6086H80.1752C80.7045 23.5124 80.3516 24.3107 80.1752 24.612C79.9987 24.9133 79.4742 25.6121 78.4171 25.6121H62.2507V30.6563H78.4171C81.0007 30.6563 83.3149 29.3393 84.6067 27.134C85.8544 25.0049 85.8969 22.475 84.7359 20.3179H84.739V20.3148ZM158.004 8.90025V30.7075H163.187V9.84758C163.187 8.69836 164.132 7.76656 165.298 7.76656H186.46V2.65719H164.339C160.84 2.65719 158.004 5.45259 158.004 8.90181V8.90025ZM201.763 7.06616C202.113 7.06616 202.982 7.16244 203.512 8.05076L216.206 30.7091H222.051L207.951 5.54577C206.659 3.34051 204.345 2.02356 201.761 2.02356C199.178 2.02356 196.864 3.34051 195.572 5.54577L187.296 20.3133H187.3C186.139 22.4719 186.181 25.0018 187.429 27.1309C188.721 29.3362 191.035 30.6531 193.618 30.6531H209.785V25.609H193.618C192.56 25.609 192.037 24.9086 191.86 24.6089C191.684 24.3076 191.331 23.5109 191.86 22.607H191.859L200.014 8.04921C200.544 7.16089 201.413 7.06461 201.763 7.06461V7.06616ZM34.6142 20.2636C36.1376 22.8664 36.1376 25.9724 34.6142 28.5752C33.0908 31.1781 30.3607 32.7311 27.3124 32.7311H8.44432C5.396 32.7311 2.66748 31.1781 1.14253 28.5752C-0.380843 25.9724 -0.380843 22.8664 1.14253 20.2636L10.5758 4.15583C12.0992 1.553 14.8293 0 17.8776 0C20.9259 0 23.6544 1.553 25.1794 4.15583L34.6126 20.2636H34.6142ZM9.98345 9.77304L12.8727 14.7069C13.2208 15.3002 13.862 15.6667 14.5583 15.6667H21.2977C21.9924 15.6667 22.6352 15.3017 22.9833 14.7069L25.8615 9.79323L22.8667 4.67919L19.0544 11.1894C18.555 12.0435 17.3041 12.0435 16.8048 11.1894L12.9814 4.66056L9.98502 9.77459L9.98345 9.77304ZM16.7039 23.6569L13.3342 17.903C12.9861 17.3098 12.3449 16.9432 11.6486 16.9432H5.87018L2.87543 22.0573H10.5238C11.5241 22.0573 12.1496 23.1242 11.6486 23.9783L7.83623 30.4885H13.8273L16.7055 25.5748C17.0537 24.9816 17.0537 24.2501 16.7055 23.6569H16.7039ZM25.3117 22.0588H32.9601L29.9637 16.9448H24.1853C23.4906 16.9448 22.8478 17.3098 22.4997 17.9046L19.13 23.6584C18.7818 24.2517 18.7818 24.9831 19.13 25.5764L22.0082 30.4901H27.9993L24.1869 23.9799C23.6875 23.1257 24.3113 22.0588 25.3117 22.0588Z" fill="#FF1638"></path>
</svg>