<svg width="36" height="33" viewBox="0 0 36 33" fill="none" xmlns="http://www.w3.org/2000/svg">
<path d="M34.6142 20.2636C36.1376 22.8664 36.1376 25.9724 34.6142 28.5752C33.0908 31.1781 30.3607 32.7311 27.3124 32.7311H8.44432C5.396 32.7311 2.66748 31.1781 1.14253 28.5752C-0.380843 25.9724 -0.380843 22.8664 1.14253 20.2636L10.5758 4.15583C12.0992 1.553 14.8293 0 17.8776 0C20.9259 0 23.6544 1.553 25.1794 4.15583L34.6126 20.2636H34.6142ZM9.98345 9.77304L12.8727 14.7069C13.2208 15.3002 13.862 15.6667 14.5583 15.6667H21.2977C21.9924 15.6667 22.6352 15.3017 22.9833 14.7069L25.8615 9.79323L22.8667 4.67919L19.0544 11.1894C18.555 12.0435 17.3041 12.0435 16.8048 11.1894L12.9814 4.66056L9.98502 9.77459L9.98345 9.77304ZM16.7039 23.6569L13.3342 17.903C12.9861 17.3098 12.3449 16.9432 11.6486 16.9432H5.87018L2.87543 22.0573H10.5238C11.5241 22.0573 12.1496 23.1242 11.6486 23.9783L7.83623 30.4885H13.8273L16.7055 25.5748C17.0537 24.9816 17.0537 24.2501 16.7055 23.6569H16.7039ZM25.3117 22.0588H32.9601L29.9637 16.9448H24.1853C23.4906 16.9448 22.8478 17.3098 22.4997 17.9046L19.13 23.6584C18.7818 24.2517 18.7818 24.9831 19.13 25.5764L22.0082 30.4901H27.9993L24.1869 23.9799C23.6875 23.1257 24.3113 22.0588 25.3117 22.0588Z" fill="#FF1638"/>
</svg>
