<svg width="64" height="64" viewBox="0 0 64 64" fill="none" xmlns="http://www.w3.org/2000/svg">
<path d="M5.3877 55.0039L18.995 17.2878C18.995 12.4069 26.8341 17.2878 36.0043 24.3873C43.3404 30.067 47.7382 37.6003 49.02 40.657L9.23324 60.4765L5.3877 57.3704V55.0039Z" fill="white"></path>
<path d="M38.8886 46.2206C32.0113 44.9434 16.39 29.9116 16.39 25.8834L13.9502 31.2392C13.9503 36.7263 26.0284 48.8065 33.2885 48.8065L38.8886 46.2206Z" fill="#D9D6D1"></path>
<path d="M25.7416 53.8752C20.9755 52.9805 10.1498 42.4502 10.1498 39.6283L8.45898 43.3802C8.45903 47.2241 16.8293 55.6868 21.8606 55.6868L25.7416 53.8752Z" fill="#D9D6D1"></path>
<path d="M14.9985 59.0999C12.1405 58.5734 5.64874 52.376 5.64874 50.7152L4.63482 52.9233C4.07743 57.346 9.05474 62.4823 12.6712 60.1661L14.9985 59.0999Z" fill="#D9D6D1"></path>
<ellipse cx="34.3096" cy="28.2794" rx="19.0742" ry="4.24584" transform="rotate(41.2118 34.3096 28.2794)" fill="#D9D6D1"></ellipse>
<ellipse cx="34.3096" cy="28.2794" rx="19.0742" ry="4.24584" transform="rotate(41.2118 34.3096 28.2794)" stroke="#484545" stroke-width="2" stroke-linecap="round" stroke-linejoin="round"></ellipse>
<path d="M19.8356 15.8146L5.31819 54.3448C5.31819 54.3448 4.46781 57.0424 6.81356 59.0949C9.1593 61.1475 11.4464 60.7956 11.4464 60.7956L48.6123 41.1733" stroke="#484545" stroke-width="2" stroke-linecap="round" stroke-linejoin="round"></path>
<path d="M9.63281 60.5687C10.4878 60.5759 11.1049 60.4592 13.6535 58.9826L45.467 41.1664" stroke="#484545" stroke-width="2" stroke-linecap="round" stroke-linejoin="round"></path>
<path d="M16.3896 25.8834C16.3896 29.9116 32.0109 44.9434 38.8882 46.2206" stroke="#484545" stroke-linecap="round" stroke-linejoin="round"></path>
<path d="M11.1006 40.5941C11.1006 43.0724 20.6805 52.3209 24.898 53.1067" stroke="#484545" stroke-linecap="round" stroke-linejoin="round"></path>
<path d="M13.9502 31.2391C13.9503 36.7262 26.0284 48.8064 33.2885 48.8064" stroke="#484545" stroke-linecap="round" stroke-linejoin="round"></path>
<path d="M9.06836 44.4249C9.0684 47.8009 16.4754 55.2333 20.9277 55.2333" stroke="#484545" stroke-linecap="round" stroke-linejoin="round"></path>
<path d="M6.62891 51.09C6.62893 53.4808 11.8563 58.7444 14.9984 58.7444" stroke="#484545" stroke-linecap="round" stroke-linejoin="round"></path>
<path d="M26.2545 26.2351C21.6238 22.2108 20.2823 17.8971 20.1904 16.2432C20.1904 13.2664 27.403 17.4836 31.0093 19.9643C30.9174 20.194 29.8378 21.7698 26.2545 26.2351Z" fill="#484545"></path>
<path d="M55.6084 6.47839C57.1201 7.58305 58.5543 12.066 56.7012 13.3632C54.9682 14.5763 49.4988 11.3761 49.3341 13.6813C49.1976 15.592 52.9704 20.2935 49.9497 21.546C48.8438 22.0045 47.4316 20.5693 46.6612 19.9915C43.1929 17.3903 40.4639 15.5556 40.4639 21.7153" stroke="#484545" stroke-width="2" stroke-linecap="round"></path>
<path d="M55.6084 6.47839C57.1201 7.58305 59.0965 12.3204 57.2433 13.6176C55.5104 14.8307 48.2479 11.0859 48.0833 13.3911C47.9468 15.3017 52.9704 20.2935 49.9497 21.546C48.8438 22.0045 46.4908 19.3742 45.7204 18.7965C42.2521 16.1952 40.4639 15.5556 40.4639 21.7153" stroke="#484545" stroke-width="2" stroke-linecap="round"></path>
<path d="M59.4087 27.7141C55.3995 27.7141 45.5569 27.6218 39.1852 32.9777" stroke="#484545" stroke-width="2" stroke-linecap="round"></path>
<path d="M27.5492 3.18156C29.1416 4.76381 31.1164 10.8851 27.2218 11.2322C24.5867 11.467 23.1492 8.47825 25.1954 7.76302C28.047 6.76626 32.4192 12.5905 30.7816 15.0307" stroke="#484545" stroke-width="2" stroke-linecap="round"></path>
<path d="M7.13786 13.941C7.04314 13.5095 7.3162 13.0828 7.74776 12.9881L9.52227 12.5987C9.95383 12.5039 10.3805 12.777 10.4752 13.2086L10.825 14.8027C10.9198 15.2342 10.6467 15.6609 10.2151 15.7556L8.44064 16.145C8.00908 16.2398 7.58245 15.9667 7.48773 15.5351L7.13786 13.941Z" fill="#484545"></path>
<path d="M44.0169 52.602C44.1276 52.1742 44.5641 51.9172 44.9919 52.028L46.7507 52.4832C47.1784 52.5939 47.4354 53.0304 47.3247 53.4581L46.9157 55.0381C46.805 55.4659 46.3685 55.7228 45.9408 55.6121L44.182 55.1569C43.7542 55.0462 43.4973 54.6097 43.608 54.1819L44.0169 52.602Z" fill="#484545"></path>
<path d="M55.8453 37.4074C55.449 37.6027 54.9694 37.4398 54.774 37.0435L53.9707 35.414C53.7754 35.0177 53.9383 34.5381 54.3346 34.3427L55.7985 33.6211C56.1948 33.4258 56.6744 33.5887 56.8697 33.985L57.673 35.6145C57.8683 36.0108 57.7054 36.4904 57.3091 36.6858L55.8453 37.4074Z" fill="#484545"></path>
<path d="M34.615 29.2009C34.3559 29.1575 34.181 28.9124 34.2244 28.6533L34.4026 27.588C34.446 27.3289 34.6912 27.154 34.9502 27.1974L35.9072 27.3575C36.1663 27.4009 36.3412 27.6461 36.2978 27.9051L36.1196 28.9704C36.0762 29.2295 35.8311 29.4044 35.572 29.361L34.615 29.2009Z" fill="#484545"></path>
<path d="M55.8051 49.2618C55.4237 49.4848 54.9337 49.3564 54.7107 48.975L53.7936 47.4067C53.5706 47.0253 53.6989 46.5353 54.0804 46.3123L55.4892 45.4884C55.8706 45.2654 56.3606 45.3938 56.5836 45.7752L57.5007 47.3435C57.7237 47.7249 57.5954 48.2149 57.214 48.4379L55.8051 49.2618Z" fill="#D9D6D1"></path>
<path d="M15.5617 14.2749C15.3615 14.3919 15.1044 14.3246 14.9873 14.1244L14.5061 13.3014C14.389 13.1012 14.4564 12.8441 14.6566 12.7271L15.3959 12.2947C15.5961 12.1777 15.8532 12.2451 15.9702 12.4452L16.4515 13.2682C16.5685 13.4684 16.5012 13.7255 16.301 13.8426L15.5617 14.2749Z" fill="#D9D6D1"></path>
<path d="M7.2189 7.61669C7.01875 7.73373 6.76161 7.66635 6.64457 7.4662L6.16331 6.6432C6.04627 6.44304 6.11365 6.18591 6.3138 6.06887L7.05314 5.63653C7.25329 5.51949 7.51042 5.58687 7.62747 5.78702L8.10873 6.61002C8.22577 6.81017 8.15839 7.06731 7.95824 7.18435L7.2189 7.61669Z" fill="#D9D6D1"></path>
<path d="M15.3269 8.94932C15.0448 8.60929 15.0917 8.10494 15.4318 7.82282L16.8299 6.66275C17.1699 6.38062 17.6743 6.42756 17.9564 6.76758L18.9986 8.02359C19.2807 8.36361 19.2337 8.86797 18.8937 9.15009L17.4956 10.3102C17.1555 10.5923 16.6512 10.5454 16.3691 10.2053L15.3269 8.94932Z" fill="#484545"></path>
<path d="M34.4539 17.8308C34.2879 17.6597 34.292 17.3863 34.4632 17.2203L35.1506 16.5536C35.3217 16.3876 35.5951 16.3918 35.7611 16.5629L36.2805 17.0985C36.4466 17.2696 36.4424 17.543 36.2712 17.709L35.5838 18.3757C35.4127 18.5417 35.1394 18.5376 34.9733 18.3664L34.4539 17.8308Z" fill="#484545"></path>
<path d="M55.7198 19.4537C55.7655 19.2196 55.9923 19.067 56.2263 19.1127L57.1662 19.2964C57.4002 19.3421 57.5528 19.5689 57.5071 19.8029L57.364 20.5352C57.3183 20.7692 57.0915 20.9218 56.8575 20.8761L55.9177 20.6924C55.6836 20.6467 55.531 20.42 55.5767 20.1859L55.7198 19.4537Z" fill="#484545"></path>
</svg>