<svg width="64" height="64" viewBox="0 0 64 64" fill="none" xmlns="http://www.w3.org/2000/svg">
<path d="M32.789 45.6652C40.6758 45.6652 47.0693 42.7852 47.0693 39.2325V27.1318L18.5088 28.1321V39.2325C18.5088 42.7852 24.9023 45.6652 32.789 45.6652Z" fill="white" stroke="#484545" stroke-width="2" stroke-miterlimit="10" stroke-linecap="round" stroke-linejoin="round"></path>
<path d="M31.1598 34.1148L7.12561 23.2348C6.32424 22.872 6.34794 21.7259 7.16362 21.3965L31.3167 11.6447C32.3062 11.2452 33.4142 11.2576 34.3945 11.6792L57.0102 21.4046C57.798 21.7434 57.8219 22.8516 57.0494 23.224L34.5466 34.0738C33.4795 34.5883 32.2391 34.6033 31.1598 34.1148Z" fill="white" stroke="#484545" stroke-width="2" stroke-linecap="round" stroke-linejoin="round"></path>
<path d="M18.7227 30.2583L32.3836 36.0317C32.5842 36.1165 32.807 36.1335 33.0181 36.0801L46.0743 32.7776C46.5182 32.6653 46.8291 32.266 46.8291 31.8082V31.1928C46.8291 30.4749 46.095 29.9909 45.4352 30.2737L35.7694 34.4161L45.8312 31.5057" stroke="#484545" stroke-width="2" stroke-linecap="round" stroke-linejoin="round"></path>
<path d="M33.0938 21.4968L41.8891 29.92C42.0861 30.1087 42.1975 30.3695 42.1975 30.6423V48.7961" stroke="#484545" stroke-width="2" stroke-linecap="round" stroke-linejoin="round"></path>
<path d="M42.2097 56.0809C40.3729 55.2381 39.9181 54.1659 40.0576 52.9224C40.2618 51.1014 41.6804 49.6579 42.2097 47.9214C42.4305 49.6923 44.0591 51.1363 44.3269 52.9224C44.5118 54.1549 43.9094 55.1913 42.2097 56.0809Z" fill="#D9D6D1" stroke="#484545" stroke-width="2" stroke-linecap="round" stroke-linejoin="round"></path>
</svg>