<svg width="64" height="64" viewBox="0 0 64 64" fill="none" xmlns="http://www.w3.org/2000/svg">
<path d="M4.71582 54.8112V24.6258H8.10695V21.3292L22.8719 22.7584C27.4245 23.6807 29.8548 24.4094 31.9371 29.6093C33.8178 25.8194 35.4682 23.9301 43.9886 22.7584L55.9929 21.3292V25.561L58.2974 24.6258V54.8112L36.4334 57.8437L35.8559 59.7806L28.1872 59.9135L28.0095 57.971L4.71582 54.8112Z" fill="#D9D6D1"></path>
<path d="M32.2485 56.1772V28.4156C31.6942 26.9086 30.6581 24.1201 26.765 23.116C20.4578 21.4892 9.11349 21.3791 8.18236 21.2386C8.21385 21.7054 8.25795 28.7607 8.18236 51.2336C10.7066 51.925 15.3323 51.7978 25.7943 52.6442C31.0616 53.6909 31.7816 55.6649 32.2485 56.1772Z" fill="white"></path>
<path d="M32.2485 56.1772V28.4156C32.7967 26.9086 33.8212 24.1201 37.6708 23.116C43.9074 21.4892 55.125 21.3791 56.0457 21.2386C56.0146 21.7054 55.971 28.7607 56.0457 51.2336C53.5497 51.925 48.9757 51.7978 38.6306 52.6442C33.4222 53.6909 32.7103 55.6649 32.2485 56.1772Z" fill="white"></path>
<path d="M36.0195 48.3464C40.2978 45.1774 47.7797 45.1701 51.6119 45.0645" stroke="#D9D6D1" stroke-linecap="round" stroke-linejoin="round"></path>
<path d="M36.6926 43.5835C41.4554 40.4736 46.8688 40.5771 51.612 40.5771" stroke="#D9D6D1" stroke-linecap="round" stroke-linejoin="round"></path>
<path d="M51.6119 36.0897C50.4742 36.0897 49.4387 36.1969 48.4476 36.2689C47.5468 36.3344 45.2136 36.4758 43.3671 36.771C41.2295 37.1129 39.5663 37.5492 38.0386 38.3547" stroke="#D9D6D1" stroke-linecap="round" stroke-linejoin="round"></path>
<path d="M28.5181 48.3302C22.6627 45.3437 17.2916 45.0645 12.5045 45.0645" stroke="#D9D6D1" stroke-linecap="round" stroke-linejoin="round"></path>
<path d="M28.0634 43.3406C26.2759 42.4018 24.7418 41.662 23.165 41.1735C21.5908 40.6857 20.0593 40.5948 18.6526 40.4313C17.5354 40.3014 16.4525 39.967 15.4168 39.9711C14.5192 39.9748 13.5741 40.1578 12.7229 40.2184" stroke="#D9D6D1" stroke-linecap="round" stroke-linejoin="round"></path>
<path d="M12.5046 36.0897C13.6422 36.0897 14.6334 35.9399 15.6246 36.0119C16.093 36.0459 18.1219 36.4824 19.0365 36.5661C20.63 36.7119 21.564 36.6873 23.4314 37.1012C24.9391 37.4354 26.1857 37.9132 27.0633 38.51" stroke="#D9D6D1" stroke-linecap="round" stroke-linejoin="round"></path>
<path d="M32.0585 39.0146L32.0585 52.102" stroke="#D9D6D1" stroke-linecap="round"></path>
<path d="M44.044 22.8844C47.3551 21.1884 52.9158 20.8437 56.0654 19.9771L56.0664 51.2782C47.4635 53.1134 33.3795 50.8058 32.0023 58.0522C30.4147 50.5306 16.5195 53.1134 7.91663 51.2782V19.9771C10.6723 20.5649 15.3971 21.1077 20.4849 22.8844" stroke="#484545" stroke-width="2" stroke-linecap="round" stroke-linejoin="round"></path>
<path d="M27.5296 57.818L5.88496 54.5215C5.39645 54.4471 5.03552 54.027 5.03552 53.5329V24.2862C5.03552 23.9582 5.34609 23.719 5.66325 23.8028L7.36165 24.2516" stroke="#484545" stroke-width="2" stroke-linecap="round" stroke-linejoin="round"></path>
<path d="M36.4894 57.8715L58.117 54.5232C58.6044 54.4478 58.964 54.0282 58.964 53.535V24.2998C58.964 23.9676 58.646 23.7278 58.3266 23.819L56.437 24.3589" stroke="#484545" stroke-width="2" stroke-linecap="round" stroke-linejoin="round"></path>
<path d="M36.4296 57.8715V59.1619C36.4296 59.5909 36.1393 59.9678 35.7212 60.0638C32.9295 60.7045 30.8883 60.648 28.2475 60.0596C27.825 59.9654 27.5295 59.5864 27.5295 59.1536L27.5295 57.8715" stroke="#484545" stroke-width="2" stroke-linecap="round" stroke-linejoin="round"></path>
<path d="M34.2916 59.3558C36.31 52.9748 49.9314 55.8609 58.4614 53.929" stroke="#484545" stroke-linecap="round" stroke-linejoin="round"></path>
<path d="M34.8507 59.3558C36.824 53.9146 50.1509 56.2088 58.4825 54.7536" stroke="#484545" stroke-width="2" stroke-linecap="round" stroke-linejoin="round"></path>
<path d="M28.6674 59.3558C26.694 53.9146 13.3672 56.2088 5.03554 54.7536" stroke="#484545" stroke-width="2" stroke-linecap="round" stroke-linejoin="round"></path>
<path d="M29.2233 59.3558C27.2032 52.7211 13.5824 55.7034 5.05347 53.929" stroke="#484545" stroke-linecap="round" stroke-linejoin="round"></path>
<path d="M56.0517 51.1163C56.1071 41.9373 55.7087 30.5501 55.7087 30.5501L55.5521 24.4812L56.2946 24.6395C55.982 28.3762 56.0696 31.3723 56.0602 36.1507" stroke="#484545" stroke-linecap="round" stroke-linejoin="round"></path>
<path d="M8.29762 51.1163C8.24225 41.9373 8.64069 30.5501 8.64069 30.5501L8.79724 24.4812L8.05474 24.6395C8.36732 28.3762 8.27981 31.3723 8.28912 36.1507" stroke="#484545" stroke-linecap="round" stroke-linejoin="round"></path>
<path d="M27.4606 58.1741L5.05347 54.8948L5.05347 51.4503" stroke="#484545" stroke-width="2" stroke-linecap="round" stroke-linejoin="round"></path>
<path d="M36.4107 57.8332L59.0758 54.8949L58.9735 51.351" stroke="#484545" stroke-width="2" stroke-linecap="round" stroke-linejoin="round"></path>
<path d="M8.29011 20.1868V24.528M56.0664 19.9771L56.0664 24.528" stroke="#484545" stroke-width="2" stroke-linecap="round" stroke-linejoin="round"></path>
<path d="M39.0476 23.4367C40.7634 21.8448 41.7977 19.4275 41.7977 17.0058C41.7977 12.1429 37.5223 8.20068 32.2483 8.20068C26.9744 8.20068 22.699 12.1429 22.699 17.0058C22.699 19.4275 23.7852 21.8448 25.5011 23.4367C26.9697 24.7992 27.7167 26.1413 28.2613 28.0242H36.2525C36.6896 26.1384 37.6039 24.7761 39.0476 23.4367Z" fill="white" stroke="#484545" stroke-width="2" stroke-linecap="round" stroke-linejoin="round"></path>
<ellipse cx="32.1166" cy="32.7451" rx="2.67303" ry="2.40567" fill="#D9D6D1" stroke="#484545" stroke-width="2" stroke-linecap="round" stroke-linejoin="round"></ellipse>
<path d="M27.3051 27.9117H36.9501L37.1341 28.6364C37.2549 29.1121 37.2549 29.6103 37.1341 30.086C37.0134 30.5616 37.0134 31.0598 37.1341 31.5355C37.2549 32.0111 37.2549 32.5094 37.1341 32.985L36.9501 33.7097H27.3051L27.1101 32.985C26.9823 32.5103 26.9823 32.0102 27.1101 31.5355C27.2379 31.0607 27.2379 30.5607 27.1101 30.086C26.9823 29.6112 26.9823 29.1112 27.1101 28.6364L27.3051 27.9117Z" fill="#D9D6D1" stroke="#484545" stroke-width="2" stroke-linecap="round" stroke-linejoin="round"></path>
<path d="M27.3051 27.9117H36.9501L37.1341 28.6364C37.2549 29.1121 37.2549 29.6103 37.1341 30.086C37.0134 30.5616 37.0134 31.0598 37.1341 31.5355C37.2549 32.0111 37.2549 32.5094 37.1341 32.985L36.9501 33.7097H27.3051L27.1101 32.985C26.9823 32.5103 26.9823 32.0102 27.1101 31.5355C27.2379 31.0607 27.2379 30.5607 27.1101 30.086C26.9823 29.6112 26.9823 29.1112 27.1101 28.6364L27.3051 27.9117Z" stroke="#484545" stroke-width="2" stroke-linecap="round" stroke-linejoin="round"></path>
<path d="M27.4763 30.8107H36.9431" stroke="#484545" stroke-linecap="round" stroke-linejoin="round"></path>
<path d="M31.2084 27.2493C31.2118 23.9468 31.295 12.3576 27.6111 15.759C25.9643 17.2796 25.0187 20.5591 32.2294 20.5591C37.2386 20.5591 40.5962 17.4133 36.792 15.5911C33.2097 13.8751 33.073 20.4773 33.2116 24.2763C33.2384 25.0108 33.2755 26.8047 33.2999 27.2493" stroke="#484545" stroke-linecap="round" stroke-linejoin="round"></path>
<path d="M35.3054 2.67359L35.0078 4.51352" stroke="#484545" stroke-miterlimit="10" stroke-linecap="round"></path>
<path d="M42.242 4.83209L40.7328 6.6159" stroke="#484545" stroke-miterlimit="10" stroke-linecap="round"></path>
<path d="M43.8649 12.2335L45.4186 11.491" stroke="#484545" stroke-miterlimit="10" stroke-linecap="round"></path>
<path d="M28.7696 2.67359L29.0671 4.51352" stroke="#484545" stroke-miterlimit="10" stroke-linecap="round"></path>
<path d="M21.8457 5.30994L23.4432 6.95624" stroke="#484545" stroke-miterlimit="10" stroke-linecap="round"></path>
<path d="M20.3635 11.491L18.8098 10.7486" stroke="#484545" stroke-miterlimit="10" stroke-linecap="round"></path>
<path d="M30.832 57.3721H33.1313C32.9136 58.5205 32.8548 59.1505 32.8257 60.257H31.151C31.1348 59.2944 31.0622 58.817 30.832 57.3721Z" fill="#484545"></path>
</svg>