<svg width="64" height="64" viewBox="0 0 64 64" fill="none" xmlns="http://www.w3.org/2000/svg">
<path d="M20.1323 35.5517L8.40837 34.8409C12.0703 25.6575 15.3452 19.5309 26.2462 20.3715" fill="#D9D6D1" fill-opacity="0.5"></path>
<path d="M20.1321 35.5517L8.40824 34.8409C12.0701 25.6575 15.3451 19.5309 26.2461 20.3715" stroke="#484545" stroke-width="2" stroke-miterlimit="10" stroke-linecap="round" stroke-linejoin="round"></path>
<path fill-rule="evenodd" clip-rule="evenodd" d="M24.8372 43.2338C24.7117 43.5824 24.5556 43.9211 24.3734 44.2497L27.1538 46.4515C26.9078 57.6145 18.1337 60.265 15.6974 58.274C15.2725 57.9268 14.8601 57.3314 14.5168 56.5622C12.2835 58.1875 9.99391 58.9746 8.68414 57.5185C7.10083 55.7581 8.57167 52.6514 10.7501 50.0838C10.5049 50.0101 10.2733 49.9227 10.059 49.8182C6.25131 47.9612 13.2454 40.2003 19.8331 39.832L24.8372 43.2338Z" fill="white"></path>
<path d="M24.8372 43.2338L25.7781 43.5725C25.9327 43.143 25.7769 42.6634 25.3994 42.4068L24.8372 43.2338ZM24.3734 44.2497L23.4989 43.7646C23.2615 44.1927 23.3688 44.7297 23.7526 45.0336L24.3734 44.2497ZM27.1538 46.4515L28.1535 46.4735C28.1604 46.1603 28.0202 45.862 27.7746 45.6676L27.1538 46.4515ZM15.6974 58.274L15.0646 59.0483L15.0646 59.0484L15.6974 58.274ZM14.5168 56.5622L15.43 56.1547C15.3071 55.8792 15.0663 55.6739 14.7748 55.5961C14.4834 55.5182 14.1723 55.5762 13.9284 55.7537L14.5168 56.5622ZM8.68414 57.5185L7.94063 58.1872L7.94065 58.1872L8.68414 57.5185ZM10.7501 50.0838L11.5126 50.7307C11.7308 50.4735 11.8047 50.1236 11.709 49.8001C11.6133 49.4766 11.361 49.2232 11.0379 49.1261L10.7501 50.0838ZM10.059 49.8182L9.62069 50.717L9.62074 50.7171L10.059 49.8182ZM19.8331 39.832L20.3953 39.005C20.2137 38.8815 19.9965 38.8213 19.7773 38.8335L19.8331 39.832ZM24.8372 43.2338L23.8964 42.8951C23.7905 43.1892 23.6573 43.479 23.4989 43.7646L24.3734 44.2497L25.2479 44.7347C25.454 44.3631 25.633 43.9756 25.7781 43.5725L24.8372 43.2338ZM24.3734 44.2497L23.7526 45.0336L26.533 47.2355L27.1538 46.4515L27.7746 45.6676L24.9942 43.4657L24.3734 44.2497ZM27.1538 46.4515L26.154 46.4295C26.0373 51.7289 23.9123 54.8746 21.6651 56.4822C20.5274 57.2962 19.3511 57.7226 18.3593 57.8439C17.3331 57.9694 16.6458 57.7576 16.3302 57.4997L15.6974 58.274L15.0646 59.0484C15.9672 59.7859 17.2902 59.9895 18.6021 59.8291C19.9483 59.6645 21.4378 59.104 22.8288 58.1088C25.6393 56.0982 28.0244 52.3371 28.1535 46.4735L27.1538 46.4515ZM15.6974 58.274L16.3303 57.4998C16.0722 57.2888 15.7394 56.8481 15.43 56.1547L14.5168 56.5622L13.6036 56.9698C13.9807 57.8147 14.4729 58.5647 15.0646 59.0483L15.6974 58.274ZM14.5168 56.5622L13.9284 55.7537C12.8623 56.5296 11.8636 57.0423 11.0443 57.2182C10.2596 57.3866 9.77113 57.2316 9.42763 56.8497L8.68414 57.5185L7.94065 58.1872C8.90692 59.2615 10.2181 59.441 11.464 59.1736C12.6753 58.9136 13.9381 58.2202 15.1053 57.3708L14.5168 56.5622ZM8.68414 57.5185L9.42765 56.8497C8.98546 56.3581 8.86402 55.5858 9.25452 54.4219C9.64102 53.27 10.4676 51.9624 11.5126 50.7307L10.7501 50.0838L9.98754 49.4368C8.85413 50.7727 7.85611 52.3023 7.3584 53.7857C6.86471 55.2572 6.79951 56.9184 7.94063 58.1872L8.68414 57.5185ZM10.7501 50.0838L11.0379 49.1261C10.8343 49.0649 10.6546 48.9961 10.4973 48.9194L10.059 49.8182L9.62074 50.7171C9.89206 50.8494 10.1754 50.9552 10.4623 51.0415L10.7501 50.0838ZM10.059 49.8182L10.4974 48.9194C10.2102 48.7794 10.0954 48.6246 10.0407 48.4914C9.97922 48.3416 9.94863 48.1042 10.0292 47.7452C10.1961 47.0012 10.7837 46.0024 11.7747 44.9536C13.7511 42.8618 16.9216 40.9963 19.8889 40.8304L19.8331 39.832L19.7773 38.8335C16.1569 39.036 12.5365 41.2351 10.3209 43.5801C9.21586 44.7497 8.35711 46.0623 8.07772 47.3073C7.93511 47.9428 7.93134 48.6193 8.19044 49.2507C8.45638 49.8988 8.95589 50.3928 9.62069 50.717L10.059 49.8182ZM19.8331 39.832L19.2709 40.659L24.275 44.0608L24.8372 43.2338L25.3994 42.4068L20.3953 39.005L19.8331 39.832Z" fill="#484545"></path>
<path d="M19.9695 35.5563C22.66 38.3824 26.7771 42.6475 30.5141 45.8464L31.6032 45.3927C40.1072 42.5331 47.8085 34.8253 52.4431 27.2807C56.5038 20.6701 60.5692 9.87758 58.4944 3.89696C49.8723 2.04773 40.6822 6.54065 34.0304 12.1997C26.9579 18.2167 22.4377 26.7237 19.9695 35.5563Z" fill="white"></path>
<path d="M19.9695 35.5563C22.66 38.3825 26.7771 42.6475 30.5141 45.8464L31.6032 45.3927C40.1072 42.5331 47.8085 34.8253 52.4431 27.2807C56.5038 20.6701 60.5692 9.87758 58.4944 3.89696C49.8723 2.04773 40.6822 6.54065 34.0304 12.1997C26.9579 18.2167 22.4377 26.7237 19.9695 35.5563Z" stroke="#484545" stroke-width="2" stroke-miterlimit="10" stroke-linecap="round" stroke-linejoin="round"></path>
<path d="M32.1492 45.3186L36.4543 57.3914C45.2719 50.8115 51.2473 43.4041 47.1755 34.3098" fill="#D9D6D1"></path>
<path d="M32.1492 45.3186L36.4543 57.3914C45.2719 50.8115 51.2473 43.4041 47.1755 34.3098C40.6588 41.3643 34.706 44.0937 32.1492 45.3186Z" stroke="#484545" stroke-width="2" stroke-miterlimit="10" stroke-linecap="round" stroke-linejoin="round"></path>
<path d="M34.7115 50.127L32.8134 45.6349C37.4953 42.946 43.2528 38.1376 46.8591 34.9741L47.3888 36.7405C44.4234 41.5307 39.8296 45.9902 34.7115 50.127Z" fill="#484545"></path>
<path d="M33.0923 17.5011C35.4645 13.7674 40.5551 11.4166 43.8712 15.0016C49.2298 20.7953 39.056 31.316 33.4693 25.6299C31.1219 23.2436 31.4735 20.0511 33.0923 17.5011Z" fill="#D9D6D1" stroke="#484545" stroke-linecap="round" stroke-linejoin="round"></path>
<path d="M33.5913 18.0821C35.8883 14.4692 40.7022 12.1214 43.7341 15.4767C48.6335 20.8993 38.8942 31.1503 33.7791 25.8352C31.6299 23.6047 32.0239 20.5495 33.5913 18.0821Z" stroke="#484545" stroke-linecap="round" stroke-linejoin="round"></path>
<path d="M38.3034 21.3504C39.79 19.0201 42.8615 17.2607 43.9549 18.7022C46.1254 21.5638 39.268 28.2781 37.4466 26.0685C36.6901 25.1508 37.2888 22.9419 38.3034 21.3504Z" fill="white"></path>
<path d="M18.9495 39.2373L20.5029 36.4889L30.0627 45.3914L27.5202 46.823L18.9495 39.2373Z" fill="#D9D6D1" stroke="#484545" stroke-width="2" stroke-miterlimit="10" stroke-linecap="round"></path>
<path d="M39.5992 8.23071C43.1841 8.21985 53.3041 15.5981 55.5307 20.8492" stroke="#484545" stroke-linecap="round"></path>
<path d="M25.9057 46.729C24.0951 50.1413 19.7173 54.4785 17.997 52.9414C16.2767 51.4044 17.9655 46.846 20.9948 42.3892L25.9057 46.729Z" fill="#D9D6D1"></path>
<path d="M19.4298 40.9863C17.9384 42.6913 14.5273 45.584 16.146 46.9999C17.1921 47.9149 20.2895 46.2687 23.7365 44.8063L19.4298 40.9863Z" fill="#D9D6D1"></path>
<ellipse cx="9.38061" cy="50.9405" rx="1.18543" ry="1.4916" transform="rotate(26.8923 9.38061 50.9405)" fill="#484545"></ellipse>
<ellipse cx="14.7615" cy="50.672" rx="1.34697" ry="2.05381" transform="rotate(35.3597 14.7615 50.672)" fill="#D9D6D1"></ellipse>
<path d="M15.2931 58.8966C14.7492 59.5153 13.2384 60.8308 12.0382 59.7756C11.2545 59.0866 11.922 58.0423 12.4659 57.4236C13.0098 56.8049 14.3813 56.4036 14.873 56.8359C15.3647 57.2681 15.837 58.2779 15.2931 58.8966Z" fill="#484545"></path>
<ellipse cx="13.4306" cy="41.5797" rx="1.18543" ry="2.0252" transform="rotate(53.4235 13.4306 41.5797)" fill="#484545"></ellipse>
</svg>